<svg width="162" height="55" viewBox="0 0 162 55" fill="none" xmlns="http://www.w3.org/2000/svg">
<path d="M2.86917 22.5884C2.4223 25.5828 1.96397 28.5772 1.49418 31.5716C0.990016 34.7799 0.871615 37.2034 1.13897 38.8419C2.03845 44.3075 5.84831 48.5986 11.3941 50.3001" stroke="#E0DFF0" stroke-width="1.14582"/>
<path d="M11.3941 50.3C17.7267 51.2702 24.0593 52.2518 30.3919 53.2448C34.2189 53.8444 37.0357 54.0049 38.8423 53.726C43.4829 53.008 46.9127 50.5101 49.1318 46.2324C49.8155 44.9185 50.3311 43.1214 50.6787 40.8413C51.4579 35.7576 52.2561 30.674 53.0735 25.5903" stroke="#F0D1ED" stroke-width="1.14582"/>
<path d="M53.0735 25.59C53.8412 21.549 54.1524 18.9175 54.0073 17.6953C53.2472 11.3245 50.1306 7.12885 44.6574 5.10838C41.4892 3.93964 36.671 3.62454 32.8382 2.95996" stroke="#E5DBEF" stroke-width="1.14582"/>
<path d="M32.8382 2.96024C29.5153 2.49809 26.2325 1.99583 22.9898 1.45348C20.3239 1.01042 18.2136 0.892023 16.6591 1.09827C11.2547 1.81632 7.50018 4.62932 5.39568 9.53727C3.90038 13.0206 3.56236 18.3658 2.86914 22.5882" stroke="#D6E7F1" stroke-width="1.14582"/>
<path d="M32.8382 2.95996C32.6549 3.44121 32.4296 3.72957 32.1622 3.82506C32.0514 3.86325 32.0514 4.00457 32.1622 4.24901C32.1928 4.31394 32.0992 4.41707 31.8815 4.55839" stroke="#C6D3F0" stroke-width="1.14582"/>
<path d="M31.8815 4.55859C28.1537 4.58151 24.4164 4.58533 20.6696 4.57005C17.3505 4.55477 14.9156 4.80686 13.3649 5.3263C9.50733 6.60962 6.84329 9.22783 5.37281 13.1809C4.29574 16.0741 4.49053 19.6663 4.58219 22.8689" stroke="#DB8BBF" stroke-width="1.14582"/>
<path d="M4.5822 22.8691C4.46762 23.0601 4.41415 23.3198 4.42178 23.6483C4.42942 23.8545 4.35303 23.8927 4.19262 23.7628C4.09713 23.6826 4.06085 23.6043 4.08377 23.528C4.11433 23.4383 4.12385 23.3363 4.11093 23.2371C4.098 23.1378 4.06331 23.0464 4.01196 22.9764C3.96062 22.9065 3.89534 22.8616 3.82575 22.8485C3.75616 22.8354 3.68594 22.8546 3.62544 22.9035L3.15565 23.2873C3.03725 23.3866 2.95513 23.3618 2.9093 23.2129C2.85964 23.0677 2.84628 22.8596 2.86919 22.5884" stroke="#C1D7F1" stroke-width="1.14582"/>
<path d="M12.3738 49.2231C12.4502 49.4218 12.4769 49.6146 12.454 49.8018C12.4273 50.0042 12.3222 50.1379 12.1389 50.2028C11.9479 50.2678 11.6997 50.3002 11.3941 50.3002" stroke="#DBC0ED" stroke-width="1.14582"/>
<path d="M53.0734 25.5899L53.0161 23.8712C53.0085 23.6611 52.8997 23.5446 52.6896 23.5217L52.1453 23.4702C52.0917 23.4651 52.0382 23.4807 51.9956 23.5137C51.9531 23.5467 51.9246 23.5946 51.9162 23.6478L51.7099 25.1259C51.701 25.1884 51.6774 25.248 51.6411 25.2997C51.6048 25.3513 51.5568 25.3935 51.5012 25.4227C51.4457 25.4519 51.3841 25.4672 51.3218 25.4674C51.2594 25.4676 51.198 25.4526 51.1427 25.4238C50.7226 25.2099 50.4571 24.7879 50.3464 24.1577" stroke="#E0BCEC" stroke-width="1.14582"/>
<path d="M50.3464 24.1581C50.398 18.6638 51.0683 13.9029 47.1553 9.18213" stroke="#E898CC" stroke-width="1.14582"/>
<path d="M47.1553 9.18199C45.597 7.22263 43.4753 5.87438 40.7903 5.13724C38.1778 4.41537 34.832 4.61588 31.8815 4.55859" stroke="#E97EBD" stroke-width="1.14582"/>
<path d="M47.1553 9.18213L38.8824 16.8706" stroke="#FD509B" stroke-width="1.14582"/>
<path d="M38.8824 16.8704L38.8423 13.4272C38.8385 13.2706 38.7583 13.1923 38.6017 13.1923L36.2871 13.1637C36.1076 13.1599 36.0179 13.2496 36.0179 13.433L36.0064 24.1693C36.0064 24.4329 35.9128 24.473 35.7257 24.2896L33.3481 21.9464C33.2144 21.8166 33.0807 21.8166 32.9471 21.9464L30.5637 24.2782C30.3881 24.4501 30.3002 24.4138 30.3002 24.1693L30.3174 13.5304C30.3174 13.3088 30.2066 13.1981 29.9851 13.1981L16.2753 13.1866C16.1187 13.1866 16.0385 13.2668 16.0347 13.4272L15.9659 37.3578" stroke="#FA93BE" stroke-width="1.14582"/>
<path d="M15.966 37.3579C15.5496 38.3701 15.141 38.9086 14.7399 38.9735C14.591 39.0003 14.4649 39.0709 14.3618 39.1855C13.1701 40.5337 11.7971 41.6605 10.2426 42.5657C9.77277 42.8407 9.2476 43.3983 8.66705 44.2386C8.43025 44.5785 8.18772 44.7771 7.93945 44.8344C7.6339 44.907 7.29206 44.8879 6.91394 44.7771" stroke="#FD509B" stroke-width="1.14582"/>
<path d="M6.91395 44.7773C5.34799 42.4742 4.56883 39.7051 4.57647 36.4701C4.59175 31.9517 4.59366 27.4181 4.5822 22.8691" stroke="#E582BE" stroke-width="1.14582"/>
<path d="M50.3464 24.1577C50.3388 27.916 50.3216 31.6724 50.2948 35.4269C50.2757 38.1425 50.0026 40.2413 49.4756 41.7232C48.0853 45.6457 45.4423 48.2601 41.5465 49.5664C39.9499 50.1011 37.4788 50.3646 34.133 50.357C28.3657 50.3455 22.5983 50.3436 16.831 50.3513C15.8647 50.3513 14.379 49.975 12.3738 49.2226" stroke="#F38ECA" stroke-width="1.14582"/>
<path d="M12.3738 49.2227C10.1853 48.3327 8.36532 46.8508 6.91394 44.7769" stroke="#E39CCD" stroke-width="1.14582"/>
<path d="M15.9659 37.3579L16.0691 41.3741C16.0729 41.565 16.1722 41.6605 16.367 41.6605L38.6074 41.7006C38.7602 41.7006 38.8366 41.6223 38.8366 41.4657L38.8824 16.8706" stroke="#F8ADCD" stroke-width="1.14582"/>
<path d="M64.5604 23.4019C64.4438 23.3989 64.3331 23.3505 64.2518 23.267C64.1704 23.1835 64.1249 23.0716 64.125 22.955L64.102 12.4192C64.1005 12.3016 64.0528 12.1895 63.9691 12.1069C63.8855 12.0243 63.7727 11.978 63.6552 11.978L62.4177 11.9838C62.3002 11.9853 62.188 12.033 62.1054 12.1167C62.0228 12.2003 61.9765 12.3131 61.9765 12.4306L61.9536 24.9946C61.9536 25.1131 62.0007 25.2268 62.0845 25.3106C62.1683 25.3944 62.282 25.4415 62.4005 25.4415H69.5447C69.6044 25.4415 69.6634 25.4296 69.7184 25.4064C69.7734 25.3832 69.8232 25.3493 69.8648 25.3066C69.9065 25.2638 69.9391 25.2132 69.9609 25.1577C69.9827 25.1021 69.9931 25.0428 69.9916 24.9831L69.9687 23.9519C69.9658 23.8373 69.9189 23.7283 69.8379 23.6472C69.7569 23.5662 69.6478 23.5194 69.5332 23.5165L64.5604 23.4019Z" stroke="#FA93BE" stroke-width="1.14582"/>
<path d="M74.4201 17.4836C74.3294 17.4821 74.2429 17.4454 74.1787 17.3812C74.1146 17.3171 74.0779 17.2305 74.0764 17.1398L74.0535 14.2867C74.0527 14.2408 74.061 14.1952 74.0779 14.1525C74.0947 14.1098 74.1198 14.0709 74.1518 14.0379C74.1837 14.0049 74.2218 13.9785 74.2639 13.9603C74.306 13.942 74.3513 13.9322 74.3972 13.9315L79.9086 13.857C79.9956 13.8559 80.079 13.8224 80.1425 13.7631C80.2061 13.7037 80.2453 13.6228 80.2524 13.5362L80.3383 12.4648C80.3415 12.4171 80.3347 12.3691 80.3186 12.3241C80.3024 12.279 80.2772 12.2377 80.2444 12.2028C80.2117 12.1679 80.1721 12.14 80.1281 12.1211C80.0841 12.1021 80.0367 12.0923 79.9888 12.0924L72.3405 12.0352C72.2478 12.0352 72.1589 12.072 72.0933 12.1375C72.0278 12.2031 71.991 12.2919 71.991 12.3846L71.9623 25.0976C71.9623 25.1434 71.9714 25.1889 71.9889 25.2313C72.0065 25.2737 72.0322 25.3122 72.0647 25.3447C72.0972 25.3771 72.1357 25.4029 72.1781 25.4204C72.2205 25.438 72.2659 25.447 72.3118 25.447L79.9487 25.4356C80.0404 25.4356 80.1285 25.3996 80.1939 25.3352C80.2592 25.2709 80.2967 25.1835 80.2982 25.0918L80.3097 23.8085C80.3097 23.7168 80.2736 23.6288 80.2093 23.5634C80.145 23.498 80.0576 23.4605 79.9659 23.459L74.4774 23.4247C74.4315 23.4247 74.3861 23.4156 74.3437 23.398C74.3013 23.3805 74.2628 23.3547 74.2303 23.3223C74.1979 23.2898 74.1721 23.2513 74.1546 23.2089C74.137 23.1665 74.1279 23.1211 74.1279 23.0752L74.1222 19.7809C74.1215 19.7346 74.1299 19.6885 74.1472 19.6454C74.1644 19.6024 74.19 19.5632 74.2225 19.5301C74.2551 19.497 74.2938 19.4708 74.3366 19.4529C74.3794 19.4349 74.4253 19.4257 74.4717 19.4257L79.1295 19.3856C79.1769 19.3857 79.2237 19.3761 79.2673 19.3575C79.3109 19.3388 79.3502 19.3116 79.3829 19.2773C79.4156 19.243 79.4409 19.2024 79.4574 19.158C79.474 19.1136 79.4813 19.0663 79.479 19.019L79.4331 17.9075C79.4302 17.8178 79.3929 17.7327 79.3289 17.6697C79.2649 17.6068 79.1791 17.5709 79.0894 17.5695L74.4201 17.4836Z" stroke="#FA93BE" stroke-width="1.14582"/>
<path d="M86.6633 13.8456L87.706 13.7195C87.9177 13.6934 88.1121 13.5877 88.2497 13.4239C88.3873 13.2601 88.4578 13.0504 88.4468 12.8375C88.4359 12.6245 88.3444 12.4243 88.1908 12.2774C88.0372 12.1305 87.8332 12.048 87.6201 12.0466L82.9852 11.9722C82.7677 11.9778 82.5603 12.0657 82.4051 12.2182C82.2498 12.3707 82.1582 12.5765 82.1488 12.7939C82.1393 13.0114 82.2127 13.2243 82.3541 13.3897C82.4956 13.5551 82.6945 13.6607 82.9107 13.6852L83.8274 13.7482C83.9192 13.754 84.0052 13.7952 84.068 13.8634C84.1309 13.9315 84.1657 14.0215 84.1654 14.1149L84.1368 23.2757C84.1368 23.3264 84.1268 23.3765 84.1073 23.4231C84.0879 23.4698 84.0594 23.512 84.0236 23.5472C83.9878 23.5825 83.9454 23.6101 83.8989 23.6284C83.8524 23.6467 83.8028 23.6554 83.7529 23.6538L83.2488 23.6367C83.0425 23.629 82.8592 23.6882 82.6988 23.8143C82.2977 24.1275 82.1793 24.5762 82.3436 25.1606C82.397 25.3516 82.525 25.4471 82.7274 25.4471L87.918 25.4356C88.1395 25.4318 88.2446 25.321 88.2331 25.1033L88.1815 24.095C88.1763 24.0005 88.1374 23.9112 88.072 23.8437C88.0067 23.7762 87.9193 23.7352 87.8263 23.7283L86.7149 23.6367C86.4972 23.6176 86.3883 23.4992 86.3883 23.2815L86.3597 14.1893C86.3558 13.9831 86.4571 13.8685 86.6633 13.8456Z" stroke="#FA93BE" stroke-width="1.14582"/>
<path d="M93.4294 14.0001C93.5434 14.003 93.6519 14.05 93.732 14.1312C93.8121 14.2124 93.8577 14.3215 93.8591 14.4355L94.0138 25.0172C94.0153 25.1322 94.0616 25.2421 94.143 25.3234C94.2243 25.4048 94.3342 25.4511 94.4492 25.4526L95.6008 25.4755C95.6601 25.4771 95.7192 25.4666 95.7744 25.4448C95.8297 25.4229 95.8799 25.3902 95.9222 25.3484C95.9645 25.3067 95.9979 25.2569 96.0204 25.2019C96.0429 25.147 96.0541 25.088 96.0534 25.0286L96.019 14.4412C96.0182 14.3828 96.0291 14.3248 96.0509 14.2706C96.0727 14.2165 96.1051 14.1672 96.1461 14.1256C96.1872 14.084 96.2361 14.051 96.29 14.0285C96.3439 14.0059 96.4017 13.9943 96.4601 13.9944L99.8518 13.9714C99.9658 13.9715 100.076 13.9274 100.158 13.8484C100.24 13.7693 100.288 13.6615 100.293 13.5475L100.333 12.4647C100.335 12.4053 100.326 12.3461 100.304 12.2906C100.283 12.2351 100.251 12.1844 100.21 12.1416C100.169 12.0988 100.119 12.0647 100.065 12.0415C100.01 12.0183 99.9513 12.0063 99.8919 12.0063L89.8946 12.0407C89.8361 12.0407 89.7783 12.0523 89.7244 12.0748C89.6705 12.0974 89.6216 12.1304 89.5806 12.1719C89.5395 12.2135 89.5072 12.2628 89.4853 12.317C89.4635 12.3712 89.4526 12.4292 89.4534 12.4876L89.4706 13.4959C89.472 13.61 89.5176 13.719 89.5977 13.8002C89.6778 13.8814 89.7863 13.9284 89.9003 13.9313L93.4294 14.0001Z" stroke="#FA93BE" stroke-width="1.14582"/>
<path d="M110.582 12.3332C110.468 15.1176 110.685 17.9134 110.473 20.6691C110.33 22.5712 109.58 23.8545 107.552 23.8144C105.289 23.7743 104.647 22.5826 104.584 20.4686C104.504 17.7606 104.473 15.0393 104.492 12.3046C104.493 12.2627 104.485 12.2211 104.47 12.1822C104.454 12.1433 104.431 12.1079 104.402 12.0781C104.373 12.0482 104.338 12.0245 104.299 12.0083C104.26 11.9921 104.219 11.9837 104.177 11.9838L102.63 11.978C102.413 11.978 102.304 12.0869 102.304 12.3046C102.288 15.3525 102.353 18.3889 102.499 21.4139C102.628 24.0226 104.005 25.451 106.629 25.6993C110.808 26.0889 112.893 24.2364 112.885 20.142C112.878 17.5639 112.83 14.9724 112.742 12.3676C112.735 12.1308 112.612 12.0105 112.376 12.0067L110.949 11.9838C110.712 11.9799 110.59 12.0964 110.582 12.3332Z" stroke="#FA93BE" stroke-width="1.14582"/>
<path d="M122.762 19.9587C124.607 19.1566 125.428 17.6842 125.226 15.5415C124.791 11.0327 119.508 11.8577 116.266 12.0238C116.037 12.0353 115.922 12.1556 115.922 12.3848L115.945 25.155C115.945 25.346 116.04 25.4434 116.231 25.4472L117.847 25.4586C118.076 25.4586 118.191 25.344 118.191 25.1149L118.196 21.116C118.196 20.8815 118.272 20.6534 118.412 20.4654C118.552 20.2775 118.749 20.1398 118.974 20.0728C119.199 20.0059 119.439 20.0133 119.659 20.0939C119.879 20.1744 120.068 20.324 120.196 20.5201L123.249 25.1493C123.311 25.2426 123.395 25.3192 123.493 25.3722C123.591 25.4252 123.7 25.4529 123.811 25.4529L125.673 25.4472C125.894 25.4434 125.944 25.3479 125.822 25.1607L122.648 20.3425C122.533 20.1707 122.572 20.0427 122.762 19.9587Z" stroke="#FA93BE" stroke-width="1.14582"/>
<path d="M129.884 22.4222C129.896 22.3844 129.919 22.3513 129.951 22.3277C129.983 22.304 130.022 22.291 130.061 22.2905L135.178 22.3077C135.219 22.3073 135.259 22.3206 135.292 22.3455C135.325 22.3703 135.35 22.4053 135.361 22.4452L136.197 25.3212C136.209 25.361 136.233 25.396 136.266 25.4209C136.299 25.4457 136.339 25.459 136.381 25.4587H138.311C138.341 25.4592 138.371 25.4525 138.398 25.4393C138.425 25.426 138.448 25.4066 138.466 25.3825C138.484 25.3584 138.496 25.3305 138.501 25.3009C138.506 25.2713 138.504 25.2409 138.495 25.2123L134.135 12.1156C134.122 12.0768 134.098 12.043 134.065 12.0193C134.032 11.9956 133.992 11.9831 133.951 11.9838L131.333 11.9781C131.293 11.9774 131.253 11.9898 131.22 12.0136C131.187 12.0373 131.162 12.0711 131.15 12.1098L126.773 25.2009C126.764 25.229 126.762 25.2588 126.766 25.288C126.771 25.3171 126.782 25.3448 126.8 25.3687C126.817 25.3927 126.84 25.4123 126.866 25.4259C126.892 25.4395 126.921 25.4468 126.95 25.4472L128.784 25.4529C128.823 25.4524 128.862 25.4394 128.894 25.4157C128.926 25.3921 128.949 25.359 128.961 25.3212L129.884 22.4222Z" stroke="#FA93BE" stroke-width="1.14582"/>
<path d="M90.1352 41.2937C85.019 42.6228 84.2972 37.1973 85.3284 33.8974C86.1935 31.1245 89.8086 30.5057 91.6362 32.8719C91.7737 33.0514 91.9322 33.0724 92.1117 32.9349L93.2518 32.0755C93.3293 32.0157 93.3814 31.9291 93.3974 31.8332C93.4134 31.7374 93.392 31.6396 93.3377 31.5599C92.7228 30.6509 91.8119 30.0531 90.6049 29.7667C86.6824 28.8386 84.1349 30.1563 82.9623 33.7198C82.0972 36.338 82.7217 40.9671 85.2998 42.6457C87.643 44.1754 91.2294 43.7457 93.3205 41.6718C93.6796 41.3166 93.6528 40.9919 93.2403 40.6978L92.2377 39.976C92.1586 39.92 92.0606 39.8976 91.9651 39.9138C91.8695 39.9299 91.7842 39.9831 91.7278 40.0619C91.2581 40.7265 90.7272 41.1371 90.1352 41.2937Z" stroke="#FA93BE" stroke-width="1.14582"/>
<path d="M124.636 37.7819C129.15 38.9907 124.074 44.0094 120.482 40.1194C120.322 39.9475 120.146 39.9303 119.955 40.0678L118.741 40.9443C118.698 40.9746 118.663 41.0139 118.638 41.0593C118.612 41.1047 118.597 41.1552 118.593 41.2071C118.589 41.259 118.597 41.3111 118.615 41.3598C118.634 41.4084 118.663 41.4524 118.701 41.4886C120.393 43.1271 122.346 43.7936 124.561 43.4881C127.512 43.0756 129.236 41.3339 128.434 38.2116C127.793 35.7022 124.166 35.1637 122.086 34.6996C121.771 34.6284 121.492 34.4439 121.303 34.181C121.114 33.9182 121.028 33.5951 121.061 33.273C121.347 30.4257 125.249 31.4397 126.435 32.8892C126.569 33.0573 126.721 33.0763 126.893 32.9465L128.108 32.0356C128.148 32.0059 128.181 31.9683 128.206 31.9251C128.231 31.8819 128.246 31.8341 128.252 31.7846C128.257 31.735 128.252 31.685 128.237 31.6375C128.222 31.5899 128.198 31.546 128.165 31.5085C125.805 28.7871 119.107 28.3403 118.815 33.0324C118.603 36.4298 121.754 37.0084 124.636 37.7819Z" stroke="#FA93BE" stroke-width="1.14582"/>
<path d="M65.3682 31.8581C65.3688 31.8137 65.3786 31.7699 65.3967 31.7293C65.4149 31.6888 65.4411 31.6524 65.4739 31.6224C65.5066 31.5924 65.5451 31.5693 65.587 31.5547C65.6289 31.54 65.6734 31.5341 65.7176 31.5372L66.8978 31.6232C66.9421 31.6263 66.9866 31.6203 67.0285 31.6057C67.0704 31.591 67.1089 31.568 67.1416 31.538C67.1744 31.5079 67.2006 31.4716 67.2188 31.431C67.2369 31.3905 67.2467 31.3467 67.2473 31.3023L67.2588 30.0706C67.2588 29.984 67.2244 29.9009 67.1631 29.8397C67.1019 29.7784 67.0188 29.744 66.9322 29.744L61.6385 29.7383C61.5951 29.7383 61.5522 29.7469 61.5122 29.7637C61.4722 29.7804 61.436 29.805 61.4056 29.8359C61.3752 29.8669 61.3512 29.9036 61.3351 29.9438C61.3191 29.9841 61.3112 30.0272 61.312 30.0706L61.3234 31.2794C61.3241 31.3228 61.3335 31.3656 61.351 31.4053C61.3684 31.445 61.3936 31.4809 61.4251 31.5107C61.4566 31.5406 61.4937 31.5639 61.5343 31.5793C61.5748 31.5946 61.6181 31.6018 61.6614 31.6002L62.7671 31.5659C62.811 31.5643 62.8547 31.5716 62.8956 31.5874C62.9366 31.6031 62.974 31.6269 63.0055 31.6574C63.0371 31.6878 63.0621 31.7244 63.0793 31.7648C63.0964 31.8051 63.1052 31.8486 63.1052 31.8924L63.1224 41.1622C63.1219 41.2081 63.1117 41.2535 63.0925 41.2953C63.0733 41.3371 63.0455 41.3744 63.0109 41.4047C62.9762 41.4349 62.9356 41.4576 62.8916 41.4711C62.8477 41.4846 62.8013 41.4886 62.7557 41.483L61.65 41.3512C61.6034 41.3454 61.556 41.3498 61.5113 41.3639C61.4665 41.3781 61.4253 41.4018 61.3905 41.4333C61.3557 41.4649 61.3281 41.5035 61.3096 41.5467C61.2911 41.5899 61.2821 41.6365 61.2833 41.6835L61.3177 42.8981C61.3207 42.9827 61.3564 43.0628 61.4173 43.1216C61.4782 43.1804 61.5596 43.2132 61.6442 43.2132L66.915 43.2074C66.9589 43.2075 67.0023 43.1987 67.0427 43.1815C67.0831 43.1644 67.1196 43.1393 67.1501 43.1078C67.1806 43.0762 67.2044 43.0389 67.2201 42.9979C67.2358 42.957 67.2431 42.9133 67.2416 42.8694L67.2015 41.7465C67.1986 41.6629 67.1637 41.5836 67.104 41.5249C67.0443 41.4663 66.9643 41.4328 66.8807 41.4314L65.6833 41.4028C65.5977 41.4013 65.5161 41.3662 65.4561 41.3051C65.396 41.244 65.3624 41.1618 65.3624 41.0762L65.3682 31.8581Z" stroke="#FA93BE" stroke-width="1.14582"/>
<path d="M77.6227 39.1226L72.9993 30.0247C72.9038 29.8414 72.753 29.7478 72.5467 29.744L70.1176 29.7383C69.9266 29.7383 69.8311 29.8319 69.8311 30.019L69.8369 42.858C69.8369 43.0948 69.9572 43.2132 70.1978 43.2132L71.6301 43.1903C71.8669 43.1864 71.9853 43.0661 71.9853 42.8293L71.991 33.0211C71.9903 32.9963 71.9981 32.972 72.0131 32.9522C72.0281 32.9325 72.0494 32.9184 72.0734 32.9124C72.0975 32.9064 72.1229 32.9088 72.1454 32.9192C72.1679 32.9296 72.1862 32.9473 72.1972 32.9695L77.2904 42.9382C77.3859 43.1215 77.5349 43.2132 77.7373 43.2132H79.7482C79.9736 43.2132 80.0862 43.1005 80.0862 42.8752V30.145C80.0862 29.8777 79.9526 29.744 79.6852 29.744H78.2185C78.1289 29.744 78.0429 29.7796 77.9795 29.843C77.9161 29.9064 77.8805 29.9924 77.8805 30.082L77.8977 39.0596C77.8977 39.4606 77.8061 39.4816 77.6227 39.1226Z" stroke="#FA93BE" stroke-width="1.14582"/>
<path d="M98.5283 41.2023C98.4372 41.2023 98.3497 41.166 98.2853 41.1016C98.2208 41.0371 98.1846 40.9497 98.1846 40.8585L98.1903 30.0878C98.1903 29.9966 98.1541 29.9092 98.0896 29.8447C98.0252 29.7802 97.9377 29.744 97.8466 29.744L96.3513 29.7383C96.2601 29.7383 96.1727 29.7745 96.1082 29.839C96.0437 29.9034 96.0075 29.9909 96.0075 30.082L96.0304 42.8694C96.0304 42.9606 96.0666 43.048 96.1311 43.1125C96.1956 43.177 96.283 43.2132 96.3742 43.2132L103.719 43.1502C103.765 43.1502 103.81 43.1411 103.852 43.1235C103.894 43.1058 103.932 43.08 103.964 43.0475C103.996 43.0149 104.021 42.9764 104.038 42.934C104.055 42.8916 104.063 42.8463 104.063 42.8007L104.028 41.546C104.027 41.4558 103.99 41.3699 103.926 41.3066C103.861 41.2434 103.775 41.208 103.685 41.208L98.5283 41.2023Z" stroke="#FA93BE" stroke-width="1.14582"/>
<path d="M113.871 39.1226C113.638 40.7764 112.738 41.5937 111.172 41.5746C108.743 41.5403 108.05 40.32 108.01 38.0341C107.96 35.4025 107.957 32.7594 107.999 30.1049C107.999 30.0578 107.991 30.011 107.973 29.9673C107.956 29.9235 107.93 29.8837 107.897 29.8501C107.863 29.8165 107.824 29.7898 107.781 29.7716C107.737 29.7534 107.69 29.744 107.643 29.744L106.085 29.7383C105.89 29.7383 105.793 29.8357 105.793 30.0305C105.766 34.1745 105.772 36.9474 105.81 38.3492C105.905 42.3175 107.997 44.0114 112.083 43.4309C114.623 43.0719 115.991 41.651 116.185 39.1684C116.289 37.9004 116.308 34.8658 116.243 30.0648C116.239 29.8471 116.128 29.7402 115.91 29.744H114.26C114.05 29.7478 113.949 29.8548 113.957 30.0648C114.152 34.2738 114.123 37.2931 113.871 39.1226Z" stroke="#FA93BE" stroke-width="1.14582"/>
<path d="M134.908 41.4658C134.864 41.4706 134.819 41.4661 134.777 41.4524C134.735 41.4388 134.696 41.4164 134.663 41.3866C134.63 41.3568 134.604 41.3204 134.586 41.2798C134.568 41.2391 134.559 41.1951 134.559 41.1507V31.8581C134.559 31.8147 134.568 31.7717 134.585 31.7319C134.602 31.6921 134.627 31.6563 134.659 31.6267C134.691 31.5972 134.728 31.5744 134.769 31.56C134.81 31.5456 134.854 31.5398 134.897 31.543L136.071 31.6232C136.114 31.6263 136.156 31.6208 136.196 31.6071C136.236 31.5934 136.273 31.5717 136.305 31.5433C136.337 31.515 136.362 31.4805 136.38 31.4421C136.398 31.4036 136.408 31.3619 136.409 31.3195L136.449 30.0706C136.451 30.0282 136.444 29.986 136.429 29.9465C136.414 29.9069 136.391 29.8708 136.361 29.8403C136.332 29.8098 136.297 29.7856 136.258 29.769C136.219 29.7525 136.177 29.744 136.134 29.744L130.841 29.7383C130.757 29.7383 130.677 29.7715 130.618 29.8306C130.559 29.8897 130.525 29.9698 130.525 30.0534L130.52 31.2851C130.52 31.3275 130.528 31.3694 130.545 31.4084C130.561 31.4474 130.586 31.4827 130.616 31.5121C130.647 31.5415 130.683 31.5645 130.722 31.5796C130.762 31.5948 130.804 31.6018 130.846 31.6002L131.969 31.5601C132.012 31.5586 132.054 31.5656 132.093 31.5808C132.133 31.5959 132.169 31.6189 132.199 31.6483C132.23 31.6777 132.254 31.713 132.271 31.752C132.287 31.7909 132.296 31.8329 132.296 31.8752L132.307 41.1622C132.308 41.2071 132.298 41.2517 132.28 41.2928C132.262 41.3339 132.235 41.3706 132.201 41.4004C132.168 41.4303 132.128 41.4526 132.085 41.4658C132.042 41.4791 131.997 41.483 131.952 41.4773L130.904 41.3455C130.86 41.3399 130.816 41.3435 130.773 41.356C130.731 41.3686 130.692 41.3899 130.659 41.4185C130.625 41.4471 130.598 41.4824 130.579 41.5221C130.56 41.5619 130.55 41.6051 130.548 41.6491L130.52 42.8866C130.519 42.9285 130.527 42.9701 130.542 43.009C130.558 43.0479 130.581 43.0833 130.61 43.1131C130.639 43.143 130.674 43.1667 130.713 43.1829C130.752 43.1991 130.793 43.2075 130.835 43.2074H136.106C136.147 43.2074 136.188 43.1993 136.226 43.1835C136.264 43.1676 136.299 43.1444 136.328 43.1152C136.358 43.0859 136.381 43.0512 136.397 43.0129C136.413 42.9747 136.421 42.9337 136.421 42.8923L136.415 41.6549C136.415 41.6109 136.405 41.5675 136.386 41.5276C136.368 41.4876 136.342 41.4519 136.309 41.4228C136.276 41.3936 136.237 41.3717 136.195 41.3584C136.153 41.3451 136.109 41.3407 136.066 41.3455L134.908 41.4658Z" stroke="#FA93BE" stroke-width="1.14582"/>
<path d="M143.531 40.1481C143.519 40.1866 143.495 40.2202 143.462 40.2441C143.43 40.268 143.39 40.2808 143.35 40.2808C143.31 40.2808 143.271 40.268 143.238 40.2441C143.206 40.2202 143.182 40.1866 143.17 40.1481L140.105 29.8815C140.093 29.8437 140.069 29.8106 140.037 29.787C140.005 29.7633 139.967 29.7503 139.927 29.7498L138.019 29.7383C137.989 29.7378 137.959 29.7444 137.933 29.7577C137.906 29.7709 137.882 29.7904 137.864 29.8145C137.846 29.8385 137.834 29.8665 137.83 29.8961C137.825 29.9257 137.827 29.9561 137.836 29.9847L141.881 43.0757C141.893 43.1135 141.916 43.1466 141.948 43.1703C141.98 43.1939 142.018 43.2069 142.058 43.2075H144.55C144.59 43.2069 144.629 43.1939 144.66 43.1703C144.692 43.1466 144.716 43.1135 144.728 43.0757L148.836 29.9961C148.845 29.9675 148.847 29.9372 148.842 29.9076C148.837 29.878 148.825 29.85 148.807 29.8259C148.789 29.8019 148.766 29.7824 148.739 29.7692C148.712 29.7559 148.682 29.7493 148.652 29.7498L146.813 29.7383C146.772 29.738 146.732 29.7513 146.698 29.7761C146.665 29.801 146.641 29.836 146.63 29.8758L143.531 40.1481Z" stroke="#FA93BE" stroke-width="1.14582"/>
<path d="M152.348 40.2569C152.364 40.204 152.396 40.1576 152.441 40.1246C152.485 40.0916 152.539 40.0737 152.594 40.0736L157.664 40.0908C157.72 40.0909 157.773 40.1088 157.818 40.1418C157.862 40.1748 157.895 40.2212 157.911 40.2741L158.724 43.0241C158.74 43.078 158.774 43.1251 158.819 43.1582C158.865 43.1913 158.92 43.2086 158.976 43.2074H160.747C160.787 43.2068 160.827 43.1966 160.862 43.1778C160.898 43.159 160.929 43.1321 160.952 43.0992C160.976 43.0663 160.991 43.0284 160.997 42.9885C161.003 42.9486 161 42.9078 160.987 42.8694L156.662 29.9273C156.645 29.8764 156.613 29.8319 156.57 29.8001C156.527 29.7683 156.475 29.7507 156.421 29.7497L153.929 29.7383C153.875 29.7392 153.823 29.7568 153.78 29.7886C153.737 29.8205 153.705 29.8649 153.688 29.9159L149.328 42.8866C149.314 42.9267 149.31 42.9697 149.316 43.0117C149.323 43.0538 149.34 43.0936 149.365 43.1277C149.391 43.1617 149.424 43.1889 149.463 43.2068C149.501 43.2247 149.544 43.2328 149.586 43.2304L151.288 43.1444C151.34 43.1408 151.39 43.1213 151.431 43.0885C151.472 43.0558 151.502 43.0113 151.517 42.9611L152.348 40.2569Z" stroke="#FA93BE" stroke-width="1.14582"/>
<path d="M118.214 14.1549L118.191 18.0392C118.191 18.1005 118.215 18.1594 118.257 18.2033C118.3 18.2472 118.358 18.2726 118.42 18.2741L120.946 18.2913C121.204 18.2937 121.459 18.2487 121.698 18.159C121.936 18.0693 122.154 17.9365 122.337 17.7684C122.521 17.6003 122.667 17.4001 122.767 17.1791C122.868 16.9582 122.921 16.721 122.923 16.4809V15.782C122.927 15.2974 122.725 14.8308 122.361 14.4848C121.997 14.1389 121.5 13.9419 120.981 13.9372L118.454 13.92C118.423 13.9192 118.392 13.9247 118.363 13.9362C118.333 13.9477 118.307 13.9648 118.284 13.9867C118.262 14.0086 118.244 14.0348 118.232 14.0637C118.22 14.0925 118.214 14.1236 118.214 14.1549Z" stroke="#FA93BE" stroke-width="1.14582"/>
<path d="M130.651 20.0616C130.643 20.087 130.641 20.114 130.646 20.1404C130.65 20.1667 130.66 20.1917 130.676 20.2134C130.691 20.2351 130.712 20.2529 130.735 20.2653C130.759 20.2777 130.785 20.2845 130.812 20.285L134.33 20.2908C134.357 20.2911 134.384 20.285 134.408 20.273C134.432 20.2609 134.453 20.2433 134.47 20.2214C134.486 20.1996 134.497 20.1743 134.501 20.1475C134.506 20.1207 134.504 20.0932 134.496 20.0673L132.748 14.6934C132.737 14.659 132.715 14.6291 132.686 14.6078C132.657 14.5866 132.621 14.5752 132.585 14.5752C132.549 14.5752 132.514 14.5866 132.484 14.6078C132.455 14.6291 132.433 14.659 132.422 14.6934L130.651 20.0616Z" stroke="#FA93BE" stroke-width="1.14582"/>
<path d="M153.196 37.799C153.186 37.8283 153.183 37.8595 153.187 37.8901C153.192 37.9207 153.203 37.9498 153.221 37.975C153.239 38.0001 153.263 38.0207 153.29 38.035C153.318 38.0492 153.348 38.0567 153.379 38.0569L156.874 38.0454C156.905 38.0452 156.935 38.0377 156.962 38.0235C156.99 38.0092 157.013 37.9887 157.031 37.9635C157.049 37.9383 157.061 37.9092 157.065 37.8786C157.07 37.848 157.067 37.8168 157.057 37.7876L155.292 32.5225C155.279 32.4848 155.254 32.4521 155.221 32.429C155.188 32.4059 155.149 32.3936 155.109 32.3936C155.069 32.3936 155.03 32.4059 154.997 32.429C154.964 32.4521 154.939 32.4848 154.926 32.5225L153.196 37.799Z" stroke="#FA93BE" stroke-width="1.14582"/>
<path d="M32.8382 2.96024C32.6549 3.44148 32.4295 3.72985 32.1622 3.82533C32.0514 3.86353 32.0514 4.00485 32.1622 4.24929C32.1927 4.31422 32.0992 4.41734 31.8815 4.55866C28.1537 4.58158 24.4164 4.5854 20.6696 4.57012C17.3505 4.55484 14.9156 4.80692 13.3649 5.32636C9.50734 6.60969 6.84329 9.22789 5.37282 13.181C4.29574 16.0742 4.49053 19.6664 4.5822 22.8689C4.46762 23.0599 4.41415 23.3196 4.42178 23.6481C4.42942 23.8543 4.35303 23.8925 4.19262 23.7627C4.09713 23.6825 4.06085 23.6042 4.08377 23.5278C4.11433 23.4382 4.12385 23.3362 4.11093 23.2369C4.098 23.1376 4.06331 23.0462 4.01196 22.9763C3.96062 22.9063 3.89534 22.8615 3.82575 22.8483C3.75616 22.8352 3.68594 22.8545 3.62544 22.9033L3.15565 23.2872C3.03725 23.3865 2.95513 23.3616 2.9093 23.2127C2.85964 23.0675 2.84628 22.8594 2.86919 22.5882C3.56242 18.3658 3.90044 13.0206 5.39574 9.53727C7.50023 4.62932 11.2547 1.81632 16.6592 1.09827C18.2137 0.892023 20.3239 1.01042 22.9899 1.45348C26.2325 1.99583 29.5153 2.49809 32.8382 2.96024Z" fill="#B7DFF2"/>
<path d="M32.8382 2.95996C36.671 3.62454 41.4892 3.93964 44.6574 5.10838C50.1306 7.12885 53.2473 11.3245 54.0073 17.6953C54.1525 18.9175 53.8412 21.549 53.0735 25.59L53.0162 23.8713C53.0086 23.6612 52.8997 23.5447 52.6896 23.5218L52.1454 23.4702C52.0918 23.4652 52.0382 23.4807 51.9957 23.5137C51.9531 23.5467 51.9247 23.5946 51.9162 23.6478L51.71 25.1259C51.701 25.1885 51.6774 25.2481 51.6411 25.2997C51.6048 25.3514 51.5569 25.3936 51.5013 25.4228C51.4457 25.4519 51.3842 25.4673 51.3218 25.4675C51.2594 25.4676 51.198 25.4527 51.1428 25.4238C50.7226 25.21 50.4572 24.7879 50.3464 24.1577C50.398 18.6635 51.0683 13.9026 47.1553 9.18179C45.597 7.22243 43.4753 5.87417 40.7903 5.13703C38.1778 4.41516 34.832 4.61568 31.8815 4.55839C32.0992 4.41707 32.1928 4.31394 32.1622 4.24901C32.0514 4.00457 32.0514 3.86325 32.1622 3.82506C32.4296 3.72957 32.6549 3.44121 32.8382 2.95996Z" fill="#D4C6ED"/>
<path d="M31.8814 4.55859C34.8319 4.61588 38.1777 4.41537 40.7902 5.13724C43.4752 5.87438 45.5969 7.22264 47.1552 9.18199L38.8824 16.8705L38.8423 13.4273C38.8385 13.2707 38.7583 13.1924 38.6017 13.1924L36.2871 13.1637C36.1076 13.1599 36.0178 13.2497 36.0178 13.433L36.0064 24.1694C36.0064 24.4329 35.9128 24.473 35.7256 24.2897L33.3481 21.9465C33.2144 21.8166 33.0807 21.8166 32.947 21.9465L30.5637 24.2782C30.388 24.4501 30.3002 24.4138 30.3002 24.1694L30.3173 13.5304C30.3173 13.3089 30.2066 13.1981 29.9851 13.1981L16.2753 13.1867C16.1187 13.1867 16.0385 13.2669 16.0346 13.4273L15.9659 37.3578C15.5496 38.37 15.1409 38.9085 14.7399 38.9734C14.5909 39.0002 14.4649 39.0708 14.3617 39.1854C13.1701 40.5337 11.797 41.6604 10.2425 42.5656C9.77272 42.8406 9.24755 43.3982 8.667 44.2385C8.43019 44.5784 8.18766 44.777 7.9394 44.8343C7.63385 44.9069 7.29201 44.8878 6.91389 44.777C5.34793 42.4739 4.56877 39.7048 4.57641 36.4698C4.59168 31.9514 4.59359 27.4178 4.58213 22.8689C4.49047 19.6663 4.29568 16.0741 5.37275 13.1809C6.84323 9.22783 9.50727 6.60962 13.3649 5.3263C14.9156 4.80686 17.3504 4.55477 20.6695 4.57005C24.4164 4.58533 28.1536 4.58151 31.8814 4.55859Z" fill="#FE368C"/>
<path d="M47.1553 9.18213C51.0683 13.9029 50.398 18.6638 50.3464 24.1581C50.3388 27.9164 50.3216 31.6727 50.2948 35.4272C50.2758 38.1428 50.0027 40.2416 49.4756 41.7235C48.0853 45.6461 45.4423 48.2605 41.5465 49.5667C39.95 50.1014 37.4788 50.365 34.133 50.3573C28.3657 50.3459 22.5984 50.344 16.8311 50.3516C15.8647 50.3516 14.379 49.9754 12.3738 49.223C10.1853 48.333 8.36532 46.8511 6.91394 44.7772C7.29206 44.8879 7.6339 44.907 7.93945 44.8344C8.18772 44.7772 8.43025 44.5785 8.66705 44.2386C9.2476 43.3983 9.77277 42.8407 10.2426 42.5657C11.7971 41.6605 13.1701 40.5338 14.3618 39.1855C14.4649 39.071 14.591 39.0003 14.7399 38.9736C15.141 38.9086 15.5496 38.3701 15.966 37.3579L16.0691 41.3741C16.0729 41.565 16.1722 41.6605 16.367 41.6605L38.6074 41.7006C38.7602 41.7006 38.8366 41.6223 38.8366 41.4657L38.8824 16.8706L47.1553 9.18213Z" fill="#FB6AAA"/>
<path d="M64.5604 23.4019L69.5332 23.5165C69.6478 23.5194 69.7569 23.5662 69.8379 23.6472C69.9189 23.7283 69.9658 23.8373 69.9687 23.9519L69.9916 24.9831C69.9931 25.0428 69.9827 25.1021 69.9609 25.1577C69.9391 25.2132 69.9065 25.2638 69.8648 25.3066C69.8232 25.3493 69.7734 25.3832 69.7184 25.4064C69.6634 25.4296 69.6044 25.4415 69.5447 25.4415H62.4005C62.282 25.4415 62.1683 25.3944 62.0845 25.3106C62.0007 25.2268 61.9536 25.1131 61.9536 24.9946L61.9765 12.4306C61.9765 12.3131 62.0228 12.2003 62.1054 12.1167C62.188 12.033 62.3002 11.9853 62.4177 11.9838L63.6552 11.978C63.7727 11.978 63.8855 12.0243 63.9691 12.1069C64.0528 12.1895 64.1005 12.3016 64.102 12.4192L64.125 22.955C64.1249 23.0716 64.1704 23.1835 64.2518 23.267C64.3331 23.3505 64.4438 23.3989 64.5604 23.4019Z" fill="#FE368C"/>
<path d="M74.4201 17.4836L79.0894 17.5695C79.1791 17.5709 79.2649 17.6068 79.3289 17.6697C79.3929 17.7327 79.4302 17.8178 79.4331 17.9075L79.479 19.019C79.4813 19.0663 79.474 19.1136 79.4574 19.158C79.4409 19.2024 79.4156 19.243 79.3829 19.2773C79.3502 19.3116 79.3109 19.3388 79.2673 19.3575C79.2237 19.3761 79.1769 19.3857 79.1295 19.3856L74.4717 19.4257C74.4253 19.4257 74.3794 19.4349 74.3366 19.4529C74.2938 19.4708 74.2551 19.497 74.2225 19.5301C74.19 19.5632 74.1644 19.6024 74.1472 19.6454C74.1299 19.6885 74.1215 19.7346 74.1222 19.7809L74.1279 23.0752C74.1279 23.1211 74.137 23.1665 74.1546 23.2089C74.1721 23.2513 74.1979 23.2898 74.2303 23.3223C74.2628 23.3547 74.3013 23.3805 74.3437 23.398C74.3861 23.4156 74.4315 23.4247 74.4774 23.4247L79.9659 23.459C80.0576 23.4605 80.145 23.498 80.2093 23.5634C80.2737 23.6288 80.3097 23.7168 80.3097 23.8085L80.2982 25.0918C80.2967 25.1835 80.2592 25.2709 80.1939 25.3352C80.1285 25.3996 80.0404 25.4356 79.9487 25.4356L72.3118 25.447C72.2659 25.447 72.2205 25.438 72.1781 25.4204C72.1357 25.4029 72.0972 25.3771 72.0647 25.3447C72.0322 25.3122 72.0065 25.2737 71.9889 25.2313C71.9714 25.1889 71.9623 25.1434 71.9623 25.0976L71.991 12.3846C71.991 12.2919 72.0278 12.2031 72.0933 12.1375C72.1589 12.072 72.2478 12.0352 72.3405 12.0352L79.9888 12.0924C80.0367 12.0923 80.0841 12.1021 80.1281 12.1211C80.1721 12.14 80.2117 12.1679 80.2444 12.2028C80.2772 12.2377 80.3024 12.279 80.3186 12.3241C80.3347 12.3691 80.3415 12.4171 80.3383 12.4648L80.2524 13.5362C80.2453 13.6228 80.2061 13.7037 80.1425 13.7631C80.079 13.8224 79.9956 13.8559 79.9086 13.857L74.3972 13.9315C74.3513 13.9322 74.306 13.942 74.2639 13.9603C74.2218 13.9785 74.1837 14.0049 74.1518 14.0379C74.1198 14.0709 74.0947 14.1098 74.0779 14.1525C74.061 14.1952 74.0527 14.2408 74.0535 14.2867L74.0764 17.1398C74.0779 17.2305 74.1146 17.3171 74.1787 17.3812C74.2429 17.4454 74.3294 17.4821 74.4201 17.4836Z" fill="#FE368C"/>
<path d="M86.3597 14.1893L86.3883 23.2815C86.3883 23.4992 86.4972 23.6176 86.7149 23.6367L87.8263 23.7283C87.9193 23.7352 88.0067 23.7762 88.072 23.8437C88.1374 23.9112 88.1763 24.0005 88.1815 24.095L88.2331 25.1033C88.2446 25.321 88.1395 25.4318 87.918 25.4356L82.7274 25.4471C82.525 25.4471 82.397 25.3516 82.3436 25.1606C82.1793 24.5762 82.2977 24.1275 82.6988 23.8143C82.8592 23.6882 83.0425 23.629 83.2488 23.6367L83.7529 23.6538C83.8028 23.6554 83.8524 23.6467 83.8989 23.6284C83.9454 23.6101 83.9878 23.5825 84.0236 23.5472C84.0594 23.512 84.0879 23.4698 84.1073 23.4231C84.1268 23.3765 84.1368 23.3264 84.1368 23.2757L84.1654 14.1149C84.1657 14.0215 84.1309 13.9315 84.068 13.8634C84.0052 13.7952 83.9192 13.754 83.8274 13.7482L82.9107 13.6852C82.6945 13.6607 82.4956 13.5551 82.3541 13.3897C82.2127 13.2243 82.1393 13.0114 82.1488 12.7939C82.1582 12.5765 82.2498 12.3707 82.4051 12.2182C82.5603 12.0657 82.7677 11.9778 82.9852 11.9722L87.6201 12.0466C87.8332 12.048 88.0372 12.1305 88.1908 12.2774C88.3444 12.4243 88.4359 12.6245 88.4468 12.8375C88.4578 13.0504 88.3873 13.2601 88.2497 13.4239C88.1121 13.5877 87.9177 13.6934 87.706 13.7195L86.6633 13.8456C86.4571 13.8685 86.3558 13.9831 86.3597 14.1893Z" fill="#FE368C"/>
<path d="M93.4294 14.0001L89.9003 13.9313C89.7863 13.9284 89.6778 13.8814 89.5977 13.8002C89.5176 13.719 89.472 13.61 89.4706 13.4959L89.4534 12.4876C89.4526 12.4292 89.4635 12.3712 89.4853 12.317C89.5072 12.2628 89.5395 12.2135 89.5806 12.1719C89.6216 12.1304 89.6705 12.0974 89.7244 12.0748C89.7783 12.0523 89.8361 12.0407 89.8946 12.0407L99.8919 12.0063C99.9513 12.0063 100.01 12.0183 100.065 12.0415C100.119 12.0647 100.169 12.0988 100.21 12.1416C100.251 12.1844 100.283 12.2351 100.304 12.2906C100.326 12.3461 100.335 12.4053 100.333 12.4647L100.293 13.5475C100.288 13.6615 100.24 13.7693 100.158 13.8484C100.076 13.9274 99.9658 13.9715 99.8518 13.9714L96.4601 13.9944C96.4017 13.9943 96.3439 14.0059 96.29 14.0285C96.2361 14.051 96.1872 14.084 96.1461 14.1256C96.1051 14.1672 96.0727 14.2165 96.0509 14.2706C96.0291 14.3248 96.0182 14.3828 96.019 14.4412L96.0534 25.0286C96.0541 25.088 96.0429 25.147 96.0204 25.2019C95.9979 25.2569 95.9645 25.3067 95.9222 25.3484C95.8799 25.3902 95.8297 25.4229 95.7744 25.4448C95.7192 25.4666 95.6601 25.4771 95.6008 25.4755L94.4492 25.4526C94.3342 25.4511 94.2243 25.4048 94.143 25.3234C94.0616 25.2421 94.0153 25.1322 94.0138 25.0172L93.8591 14.4355C93.8577 14.3215 93.8121 14.2124 93.732 14.1312C93.6519 14.05 93.5434 14.003 93.4294 14.0001Z" fill="#FE368C"/>
<path d="M110.473 20.6691C110.685 17.9134 110.468 15.1176 110.582 12.3332C110.59 12.0964 110.712 11.9799 110.949 11.9838L112.376 12.0067C112.612 12.0105 112.735 12.1308 112.742 12.3676C112.83 14.9724 112.878 17.5639 112.885 20.142C112.893 24.2364 110.808 26.0889 106.629 25.6993C104.005 25.451 102.628 24.0226 102.499 21.4139C102.353 18.3889 102.288 15.3525 102.304 12.3046C102.304 12.0869 102.413 11.978 102.63 11.978L104.177 11.9838C104.219 11.9837 104.26 11.9921 104.299 12.0083C104.338 12.0245 104.373 12.0482 104.402 12.0781C104.431 12.1079 104.454 12.1433 104.47 12.1822C104.485 12.2211 104.493 12.2627 104.492 12.3046C104.473 15.0393 104.504 17.7606 104.584 20.4686C104.647 22.5826 105.289 23.7743 107.552 23.8144C109.58 23.8545 110.33 22.5712 110.473 20.6691Z" fill="#FE368C"/>
<path d="M122.648 20.3425L125.822 25.1607C125.944 25.3479 125.894 25.4434 125.673 25.4472L123.811 25.4529C123.7 25.4529 123.591 25.4252 123.493 25.3722C123.395 25.3192 123.311 25.2426 123.249 25.1493L120.196 20.5201C120.068 20.3239 119.879 20.1744 119.659 20.0939C119.439 20.0133 119.199 20.0059 118.974 20.0728C118.749 20.1398 118.552 20.2775 118.412 20.4654C118.272 20.6534 118.196 20.8815 118.196 21.116L118.191 25.1149C118.191 25.344 118.076 25.4586 117.847 25.4586L116.231 25.4472C116.04 25.4434 115.945 25.346 115.945 25.155L115.922 12.3848C115.922 12.1556 116.037 12.0353 116.266 12.0238C119.508 11.8577 124.791 11.0327 125.226 15.5415C125.428 17.6842 124.607 19.1566 122.762 19.9587C122.572 20.0427 122.533 20.1707 122.648 20.3425ZM118.214 14.1551L118.191 18.0394C118.191 18.1007 118.215 18.1596 118.257 18.2035C118.3 18.2474 118.359 18.2728 118.42 18.2743L120.946 18.2915C121.204 18.2939 121.459 18.2489 121.698 18.1592C121.936 18.0694 122.154 17.9367 122.337 17.7686C122.521 17.6005 122.667 17.4002 122.767 17.1793C122.868 16.9584 122.921 16.7212 122.923 16.4811V15.7821C122.927 15.2975 122.725 14.831 122.361 14.485C121.997 14.1391 121.5 13.9421 120.981 13.9374L118.454 13.9202C118.423 13.9194 118.392 13.9249 118.363 13.9364C118.333 13.9479 118.307 13.965 118.284 13.9869C118.262 14.0088 118.244 14.035 118.232 14.0638C118.22 14.0927 118.214 14.1237 118.214 14.1551Z" fill="#FE368C"/>
<path d="M129.884 22.4222L128.961 25.3212C128.949 25.359 128.926 25.3921 128.894 25.4157C128.862 25.4394 128.823 25.4524 128.784 25.4529L126.95 25.4472C126.921 25.4468 126.892 25.4395 126.866 25.4259C126.84 25.4123 126.817 25.3927 126.8 25.3687C126.782 25.3448 126.771 25.3171 126.766 25.288C126.762 25.2588 126.764 25.229 126.773 25.2009L131.15 12.1098C131.162 12.0711 131.187 12.0373 131.22 12.0136C131.253 11.9898 131.293 11.9774 131.333 11.9781L133.951 11.9838C133.992 11.9831 134.032 11.9956 134.065 12.0193C134.098 12.043 134.122 12.0768 134.135 12.1156L138.495 25.2123C138.504 25.2409 138.506 25.2713 138.501 25.3009C138.496 25.3305 138.484 25.3584 138.466 25.3825C138.448 25.4066 138.425 25.426 138.398 25.4393C138.371 25.4525 138.341 25.4592 138.311 25.4587H136.381C136.339 25.459 136.299 25.4457 136.266 25.4209C136.233 25.396 136.209 25.361 136.197 25.3212L135.361 22.4452C135.35 22.4053 135.325 22.3703 135.292 22.3455C135.259 22.3206 135.219 22.3073 135.177 22.3077L130.061 22.2905C130.022 22.291 129.983 22.304 129.951 22.3277C129.919 22.3513 129.896 22.3844 129.884 22.4222ZM130.651 20.0618C130.643 20.0873 130.642 20.1143 130.646 20.1406C130.65 20.167 130.66 20.192 130.676 20.2137C130.691 20.2354 130.712 20.2531 130.735 20.2655C130.759 20.278 130.785 20.2847 130.812 20.2853L134.33 20.291C134.357 20.2914 134.384 20.2853 134.408 20.2732C134.432 20.2612 134.453 20.2435 134.47 20.2217C134.486 20.1999 134.497 20.1746 134.501 20.1478C134.506 20.121 134.504 20.0935 134.496 20.0676L132.748 14.6937C132.737 14.6593 132.715 14.6293 132.686 14.6081C132.657 14.5869 132.621 14.5755 132.585 14.5755C132.549 14.5755 132.514 14.5869 132.484 14.6081C132.455 14.6293 132.433 14.6593 132.422 14.6937L130.651 20.0618Z" fill="#FE368C"/>
<path d="M38.8824 16.8704L38.8366 41.4655C38.8366 41.6221 38.7602 41.7004 38.6074 41.7004L16.367 41.6603C16.1722 41.6603 16.0729 41.5649 16.0691 41.3739L15.9659 37.3578L16.0347 13.4272C16.0385 13.2668 16.1187 13.1866 16.2753 13.1866L29.9851 13.1981C30.2066 13.1981 30.3174 13.3088 30.3174 13.5304L30.3002 24.1693C30.3002 24.4138 30.3881 24.4501 30.5637 24.2782L32.9471 21.9464C33.0807 21.8166 33.2144 21.8166 33.3481 21.9464L35.7257 24.2896C35.9128 24.473 36.0064 24.4329 36.0064 24.1693L36.0179 13.433C36.0179 13.2496 36.1076 13.1599 36.2871 13.1637L38.6017 13.1923C38.7583 13.1923 38.8385 13.2706 38.8423 13.4272L38.8824 16.8704Z" fill="#F5EFF0"/>
<path d="M2.86917 22.5884C2.84625 22.8596 2.85962 23.0677 2.90927 23.2129C2.95511 23.3618 3.03722 23.3866 3.15562 23.2873L3.62541 22.9035C3.68592 22.8546 3.75614 22.8354 3.82573 22.8485C3.89532 22.8616 3.9606 22.9065 4.01194 22.9764C4.06328 23.0464 4.09798 23.1378 4.1109 23.2371C4.12383 23.3363 4.11431 23.4383 4.08374 23.528C4.06083 23.6043 4.09711 23.6826 4.19259 23.7628C4.35301 23.8927 4.4294 23.8545 4.42176 23.6483C4.41412 23.3198 4.46759 23.0601 4.58218 22.8691C4.59363 27.418 4.59172 31.9517 4.57645 36.47C4.56881 39.7051 5.34797 42.4742 6.91393 44.7773C8.3653 46.8512 10.1853 48.3331 12.3738 49.2231C12.4502 49.4217 12.4769 49.6145 12.454 49.8017C12.4273 50.0041 12.3222 50.1378 12.1389 50.2027C11.9479 50.2677 11.6997 50.3001 11.3941 50.3001C5.84831 48.5986 2.03845 44.3075 1.13897 38.8419C0.871615 37.2034 0.990016 34.7799 1.49418 31.5716C1.96397 28.5772 2.4223 25.5828 2.86917 22.5884Z" fill="#CBCEEF"/>
<path d="M53.0735 25.5899C52.2561 30.6736 51.4579 35.7572 50.6787 40.8409C50.3311 43.1211 49.8155 44.9181 49.1318 46.232C46.9127 50.5097 43.4829 53.0076 38.8423 53.7257C37.0357 54.0045 34.2189 53.8441 30.3919 53.2444C24.0593 52.2514 17.7267 51.2698 11.3941 50.2996C11.6997 50.2996 11.9479 50.2672 12.1389 50.2022C12.3222 50.1373 12.4273 50.0036 12.454 49.8012C12.4769 49.6141 12.4502 49.4212 12.3738 49.2226C14.379 49.975 15.8647 50.3512 16.831 50.3512C22.5984 50.3436 28.3657 50.3455 34.133 50.3569C37.4788 50.3646 39.95 50.101 41.5465 49.5663C45.4423 48.2601 48.0853 45.6457 49.4756 41.7231C50.0027 40.2412 50.2757 38.1424 50.2948 35.4268C50.3216 31.6724 50.3388 27.916 50.3464 24.1577C50.4572 24.7879 50.7226 25.2099 51.1427 25.4238C51.198 25.4526 51.2594 25.4676 51.3218 25.4674C51.3842 25.4672 51.4457 25.4519 51.5013 25.4227C51.5568 25.3935 51.6048 25.3513 51.6411 25.2997C51.6774 25.248 51.701 25.1884 51.7099 25.1259L51.9162 23.6478C51.9247 23.5946 51.9531 23.5467 51.9956 23.5137C52.0382 23.4807 52.0917 23.4651 52.1453 23.4702L52.6896 23.5217C52.8997 23.5446 53.0085 23.6611 53.0162 23.8712L53.0735 25.5899Z" fill="#EBB2EA"/>
<path d="M90.1352 41.2937C90.7272 41.1371 91.2581 40.7265 91.7278 40.0619C91.7842 39.9831 91.8695 39.9299 91.9651 39.9138C92.0606 39.8976 92.1586 39.92 92.2377 39.976L93.2403 40.6978C93.6528 40.9919 93.6796 41.3166 93.3205 41.6718C91.2294 43.7457 87.643 44.1754 85.2998 42.6457C82.7217 40.9671 82.0972 36.338 82.9623 33.7198C84.1349 30.1563 86.6824 28.8386 90.6049 29.7667C91.8119 30.0531 92.7228 30.6509 93.3377 31.5599C93.392 31.6396 93.4134 31.7374 93.3974 31.8332C93.3814 31.9291 93.3293 32.0157 93.2518 32.0755L92.1117 32.9349C91.9322 33.0724 91.7737 33.0514 91.6362 32.8719C89.8086 30.5057 86.1935 31.1245 85.3284 33.8974C84.2972 37.1973 85.019 42.6228 90.1352 41.2937Z" fill="#FE368C"/>
<path d="M120.482 40.1194C124.074 44.0094 129.15 38.9907 124.636 37.7819C121.754 37.0084 118.603 36.4298 118.815 33.0324C119.107 28.3403 125.805 28.7871 128.165 31.5085C128.198 31.546 128.222 31.5899 128.237 31.6375C128.252 31.685 128.257 31.735 128.252 31.7846C128.246 31.8341 128.231 31.8819 128.206 31.9251C128.181 31.9683 128.148 32.0059 128.108 32.0356L126.893 32.9465C126.721 33.0763 126.569 33.0573 126.435 32.8892C125.249 31.4397 121.347 30.4257 121.061 33.273C121.028 33.5951 121.114 33.9182 121.303 34.181C121.492 34.4439 121.771 34.6284 122.086 34.6996C124.166 35.1637 127.793 35.7022 128.434 38.2116C129.236 41.3339 127.512 43.0756 124.561 43.4881C122.346 43.7936 120.393 43.1271 118.701 41.4886C118.663 41.4524 118.634 41.4084 118.615 41.3598C118.597 41.3111 118.589 41.259 118.593 41.2071C118.597 41.1552 118.612 41.1047 118.638 41.0593C118.663 41.0139 118.698 40.9746 118.741 40.9443L119.955 40.0678C120.146 39.9303 120.322 39.9475 120.482 40.1194Z" fill="#FE368C"/>
<path d="M65.3682 31.8581L65.3624 41.0762C65.3624 41.1618 65.396 41.244 65.4561 41.3051C65.5161 41.3662 65.5977 41.4013 65.6833 41.4028L66.8807 41.4314C66.9643 41.4328 67.0443 41.4663 67.104 41.5249C67.1637 41.5836 67.1986 41.6629 67.2015 41.7465L67.2416 42.8694C67.2431 42.9133 67.2358 42.957 67.2201 42.9979C67.2044 43.0389 67.1806 43.0762 67.1501 43.1078C67.1196 43.1393 67.0831 43.1644 67.0427 43.1815C67.0023 43.1987 66.9589 43.2075 66.915 43.2074L61.6442 43.2132C61.5596 43.2132 61.4782 43.1804 61.4173 43.1216C61.3564 43.0628 61.3207 42.9827 61.3177 42.8981L61.2833 41.6835C61.2821 41.6365 61.2911 41.5899 61.3096 41.5467C61.3281 41.5035 61.3557 41.4649 61.3905 41.4333C61.4253 41.4018 61.4665 41.3781 61.5113 41.3639C61.556 41.3498 61.6034 41.3454 61.65 41.3512L62.7557 41.483C62.8013 41.4886 62.8477 41.4846 62.8916 41.4711C62.9356 41.4576 62.9762 41.4349 63.0109 41.4047C63.0455 41.3744 63.0733 41.3371 63.0925 41.2953C63.1117 41.2535 63.1219 41.2081 63.1224 41.1622L63.1052 31.8924C63.1052 31.8486 63.0964 31.8051 63.0793 31.7648C63.0621 31.7244 63.0371 31.6878 63.0055 31.6574C62.974 31.6269 62.9366 31.6031 62.8956 31.5874C62.8547 31.5716 62.811 31.5643 62.7671 31.5659L61.6614 31.6002C61.6181 31.6018 61.5748 31.5946 61.5343 31.5793C61.4937 31.5639 61.4566 31.5406 61.4251 31.5107C61.3936 31.4809 61.3684 31.445 61.351 31.4053C61.3335 31.3656 61.3241 31.3228 61.3234 31.2794L61.312 30.0706C61.3112 30.0272 61.3191 29.9841 61.3351 29.9438C61.3512 29.9036 61.3752 29.8669 61.4056 29.8359C61.436 29.805 61.4722 29.7804 61.5122 29.7637C61.5522 29.7469 61.5951 29.7383 61.6385 29.7383L66.9322 29.744C67.0188 29.744 67.1019 29.7784 67.1631 29.8397C67.2244 29.9009 67.2588 29.984 67.2588 30.0706L67.2473 31.3023C67.2467 31.3467 67.2369 31.3905 67.2188 31.431C67.2006 31.4716 67.1744 31.5079 67.1416 31.538C67.1089 31.568 67.0704 31.591 67.0285 31.6057C66.9866 31.6203 66.9421 31.6263 66.8978 31.6232L65.7176 31.5372C65.6734 31.5341 65.6289 31.54 65.587 31.5547C65.5451 31.5693 65.5066 31.5924 65.4739 31.6224C65.4411 31.6524 65.4149 31.6888 65.3967 31.7293C65.3786 31.7699 65.3688 31.8137 65.3682 31.8581Z" fill="#FE368C"/>
<path d="M77.8977 39.0596L77.8805 30.082C77.8805 29.9924 77.9161 29.9064 77.9795 29.843C78.0429 29.7796 78.1289 29.744 78.2185 29.744H79.6852C79.9526 29.744 80.0862 29.8777 80.0862 30.145V42.8752C80.0862 43.1005 79.9736 43.2132 79.7482 43.2132H77.7373C77.5349 43.2132 77.3859 43.1215 77.2904 42.9382L72.1972 32.9695C72.1862 32.9473 72.1679 32.9296 72.1454 32.9192C72.1229 32.9088 72.0975 32.9064 72.0734 32.9124C72.0494 32.9184 72.0281 32.9325 72.0131 32.9522C71.9981 32.972 71.9903 32.9963 71.991 33.0211L71.9853 42.8293C71.9853 43.0661 71.8669 43.1864 71.6301 43.1903L70.1978 43.2132C69.9572 43.2132 69.8369 43.0948 69.8369 42.858L69.8311 30.019C69.8311 29.8319 69.9266 29.7383 70.1176 29.7383L72.5467 29.744C72.753 29.7478 72.9038 29.8414 72.9993 30.0247L77.6227 39.1226C77.8061 39.4816 77.8977 39.4606 77.8977 39.0596Z" fill="#FE368C"/>
<path d="M98.5283 41.2023L103.685 41.208C103.775 41.208 103.861 41.2434 103.926 41.3066C103.99 41.3699 104.027 41.4558 104.028 41.546L104.063 42.8007C104.063 42.8463 104.055 42.8916 104.038 42.934C104.021 42.9764 103.996 43.0149 103.964 43.0475C103.932 43.08 103.894 43.1058 103.852 43.1235C103.81 43.1411 103.765 43.1502 103.719 43.1502L96.3742 43.2132C96.283 43.2132 96.1956 43.177 96.1311 43.1125C96.0666 43.048 96.0304 42.9606 96.0304 42.8694L96.0075 30.082C96.0075 29.9909 96.0437 29.9034 96.1082 29.839C96.1727 29.7745 96.2601 29.7383 96.3513 29.7383L97.8466 29.744C97.9377 29.744 98.0252 29.7802 98.0896 29.8447C98.1541 29.9092 98.1903 29.9966 98.1903 30.0878L98.1846 40.8585C98.1846 40.9497 98.2208 41.0371 98.2853 41.1016C98.3497 41.166 98.4372 41.2023 98.5283 41.2023Z" fill="#FE368C"/>
<path d="M113.871 39.1226C114.123 37.2931 114.152 34.2738 113.957 30.0648C113.949 29.8548 114.05 29.7478 114.26 29.744H115.91C116.128 29.7402 116.239 29.8471 116.243 30.0648C116.308 34.8658 116.289 37.9004 116.185 39.1684C115.991 41.651 114.623 43.0719 112.083 43.4309C107.997 44.0114 105.905 42.3175 105.81 38.3492C105.772 36.9474 105.766 34.1745 105.793 30.0305C105.793 29.8357 105.89 29.7383 106.085 29.7383L107.643 29.744C107.69 29.744 107.737 29.7534 107.781 29.7716C107.824 29.7898 107.863 29.8165 107.897 29.8501C107.93 29.8837 107.956 29.9235 107.973 29.9673C107.991 30.011 107.999 30.0578 107.999 30.1049C107.957 32.7594 107.96 35.4025 108.01 38.0341C108.05 40.32 108.743 41.5403 111.172 41.5746C112.738 41.5937 113.638 40.7764 113.871 39.1226Z" fill="#FE368C"/>
<path d="M134.908 41.4658L136.066 41.3455C136.109 41.3407 136.153 41.3451 136.195 41.3584C136.237 41.3717 136.276 41.3936 136.309 41.4228C136.342 41.4519 136.368 41.4876 136.386 41.5276C136.405 41.5675 136.415 41.6109 136.415 41.6549L136.421 42.8923C136.421 42.9337 136.413 42.9747 136.397 43.0129C136.381 43.0512 136.358 43.0859 136.328 43.1152C136.299 43.1444 136.264 43.1676 136.226 43.1835C136.188 43.1993 136.147 43.2074 136.106 43.2074H130.835C130.793 43.2075 130.752 43.1991 130.713 43.1829C130.674 43.1667 130.639 43.143 130.61 43.1131C130.581 43.0833 130.558 43.0479 130.542 43.009C130.527 42.9701 130.519 42.9285 130.52 42.8866L130.548 41.6491C130.55 41.6051 130.56 41.5619 130.579 41.5221C130.598 41.4824 130.625 41.4471 130.659 41.4185C130.692 41.3899 130.731 41.3686 130.773 41.356C130.816 41.3435 130.86 41.3399 130.904 41.3455L131.952 41.4773C131.997 41.483 132.042 41.4791 132.085 41.4658C132.128 41.4526 132.168 41.4303 132.201 41.4004C132.235 41.3706 132.262 41.3339 132.28 41.2928C132.298 41.2517 132.308 41.2071 132.307 41.1622L132.296 31.8752C132.296 31.8329 132.287 31.7909 132.271 31.752C132.254 31.713 132.23 31.6777 132.199 31.6483C132.169 31.6189 132.133 31.5959 132.093 31.5808C132.054 31.5656 132.012 31.5586 131.969 31.5601L130.846 31.6002C130.804 31.6018 130.762 31.5948 130.722 31.5796C130.683 31.5645 130.647 31.5415 130.616 31.5121C130.586 31.4827 130.561 31.4474 130.545 31.4084C130.528 31.3694 130.52 31.3275 130.52 31.2851L130.525 30.0534C130.525 29.9698 130.559 29.8897 130.618 29.8306C130.677 29.7715 130.757 29.7383 130.841 29.7383L136.134 29.744C136.177 29.744 136.219 29.7525 136.258 29.769C136.297 29.7856 136.332 29.8098 136.361 29.8403C136.391 29.8708 136.414 29.9069 136.429 29.9465C136.444 29.986 136.451 30.0282 136.449 30.0706L136.409 31.3195C136.408 31.3619 136.398 31.4036 136.38 31.4421C136.362 31.4805 136.337 31.515 136.305 31.5433C136.273 31.5717 136.236 31.5934 136.196 31.6071C136.156 31.6208 136.114 31.6263 136.071 31.6232L134.897 31.543C134.854 31.5398 134.81 31.5456 134.769 31.56C134.728 31.5744 134.691 31.5972 134.659 31.6267C134.627 31.6563 134.602 31.6921 134.585 31.7319C134.568 31.7717 134.559 31.8147 134.559 31.8581V41.1507C134.559 41.1951 134.568 41.2391 134.586 41.2798C134.604 41.3204 134.63 41.3568 134.663 41.3866C134.696 41.4164 134.735 41.4388 134.777 41.4524C134.819 41.4661 134.864 41.4706 134.908 41.4658Z" fill="#FE368C"/>
<path d="M143.531 40.1481L146.63 29.8758C146.641 29.836 146.665 29.801 146.698 29.7761C146.732 29.7513 146.772 29.738 146.813 29.7383L148.652 29.7498C148.682 29.7493 148.712 29.7559 148.739 29.7692C148.766 29.7824 148.789 29.8019 148.807 29.8259C148.825 29.85 148.837 29.878 148.842 29.9076C148.847 29.9372 148.845 29.9675 148.836 29.9961L144.728 43.0757C144.716 43.1135 144.692 43.1466 144.66 43.1703C144.629 43.1939 144.59 43.2069 144.55 43.2075H142.058C142.018 43.2069 141.98 43.1939 141.948 43.1703C141.916 43.1466 141.893 43.1135 141.881 43.0757L137.836 29.9847C137.827 29.9561 137.825 29.9257 137.83 29.8961C137.834 29.8665 137.846 29.8385 137.864 29.8145C137.882 29.7904 137.906 29.7709 137.933 29.7577C137.959 29.7444 137.989 29.7378 138.019 29.7383L139.927 29.7498C139.967 29.7503 140.005 29.7633 140.037 29.787C140.069 29.8106 140.093 29.8437 140.105 29.8815L143.17 40.1481C143.182 40.1866 143.206 40.2202 143.238 40.2441C143.271 40.268 143.31 40.2808 143.35 40.2808C143.39 40.2808 143.43 40.268 143.462 40.2441C143.495 40.2202 143.519 40.1866 143.531 40.1481Z" fill="#FE368C"/>
<path d="M152.348 40.2569L151.517 42.9611C151.502 43.0113 151.472 43.0558 151.431 43.0885C151.39 43.1213 151.34 43.1408 151.288 43.1444L149.586 43.2304C149.544 43.2328 149.501 43.2247 149.463 43.2068C149.424 43.1889 149.391 43.1617 149.365 43.1277C149.34 43.0936 149.323 43.0538 149.316 43.0117C149.31 42.9697 149.314 42.9267 149.328 42.8866L153.688 29.9159C153.705 29.8649 153.737 29.8205 153.78 29.7886C153.823 29.7568 153.875 29.7392 153.929 29.7383L156.421 29.7497C156.475 29.7507 156.527 29.7683 156.57 29.8001C156.613 29.8319 156.645 29.8764 156.662 29.9273L160.987 42.8694C161 42.9078 161.003 42.9486 160.997 42.9885C160.991 43.0284 160.976 43.0663 160.952 43.0992C160.929 43.1321 160.898 43.159 160.862 43.1778C160.827 43.1966 160.787 43.2068 160.747 43.2074H158.976C158.92 43.2086 158.865 43.1913 158.819 43.1582C158.774 43.1251 158.74 43.078 158.724 43.0241L157.911 40.2741C157.895 40.2212 157.862 40.1748 157.818 40.1418C157.773 40.1088 157.72 40.0909 157.664 40.0908L152.594 40.0736C152.539 40.0737 152.485 40.0916 152.441 40.1246C152.396 40.1576 152.364 40.204 152.348 40.2569ZM153.196 37.7992C153.186 37.8284 153.183 37.8596 153.187 37.8902C153.192 37.9208 153.203 37.9499 153.221 37.9751C153.239 38.0003 153.263 38.0208 153.29 38.0351C153.318 38.0493 153.348 38.0568 153.379 38.057L156.874 38.0455C156.905 38.0454 156.935 38.0378 156.962 38.0236C156.99 38.0094 157.014 37.9888 157.031 37.9636C157.049 37.9384 157.061 37.9093 157.065 37.8787C157.07 37.8481 157.067 37.8169 157.057 37.7877L155.292 32.5226C155.279 32.4849 155.254 32.4522 155.221 32.4291C155.188 32.4061 155.149 32.3937 155.109 32.3937C155.069 32.3937 155.03 32.4061 154.997 32.4291C154.964 32.4522 154.939 32.4849 154.926 32.5226L153.196 37.7992Z" fill="#FE368C"/>
</svg>
